<svg width="23" height="20" viewBox="0 0 23 20" fill="none" xmlns="http://www.w3.org/2000/svg">
<path d="M11.5717 0.571426C8.98279 0.571426 6.88421 2.64903 6.88421 5.21205C6.88421 7.28413 9.94782 11.0607 11.1216 12.4315C11.3593 12.7092 11.7845 12.7092 12.0219 12.4315C13.1956 11.0607 16.2592 7.28413 16.2592 5.21205C16.2592 2.64903 14.1606 0.571426 11.5717 0.571426ZM11.5717 6.75893C10.7086 6.75893 10.0092 6.06652 10.0092 5.21205C10.0092 4.35759 10.7086 3.66518 11.5717 3.66518C12.4348 3.66518 13.1342 4.35759 13.1342 5.21205C13.1342 6.06652 12.4348 6.75893 11.5717 6.75893ZM1.60593 8.52494C1.38502 8.61242 1.19564 8.76341 1.06222 8.95845C0.928809 9.15349 0.857475 9.38362 0.857422 9.61917L0.857422 18.8385C0.857422 19.2555 1.28265 19.5405 1.67364 19.3858L6.8098 17.0714V8.48701C6.48093 7.89846 6.21196 7.32538 6.01925 6.77734L1.60593 8.52494ZM11.5717 13.8182C11.0483 13.8182 10.5531 13.5906 10.2134 13.1936C9.48205 12.3391 8.70415 11.366 8.00028 10.3679V17.0711L15.1431 19.4282V10.3683C14.4393 11.366 13.6617 12.3395 12.93 13.1939C12.5903 13.5906 12.0951 13.8182 11.5717 13.8182ZM21.4698 6.50701L16.3336 8.82143V19.4286L21.5375 17.3679C21.7584 17.2805 21.9478 17.1295 22.0813 16.9344C22.2147 16.7394 22.286 16.5092 22.286 16.2737V7.05431C22.286 6.63739 21.8608 6.35232 21.4698 6.50701Z" fill="#1802A0"/>
</svg>
