<svg width="22" height="22" viewBox="0 0 22 22" fill="none" xmlns="http://www.w3.org/2000/svg">
<path d="M14.6331 3.35791V8.90835M11.8649 6.13962H17.4121M11.8044 19.9249C11.4731 19.7735 11.1464 19.6124 10.8247 19.4417C9.1972 18.5172 7.70134 17.3784 6.37723 16.0556C4.64587 14.4517 3.22059 12.5464 2.17092 10.4327C1.63026 9.28674 1.27343 8.06184 1.1188 6.8045C0.872119 5.5433 1.01155 4.23703 1.51889 3.05628C1.82922 2.53734 2.20768 2.06165 2.64237 1.64002C2.81417 1.44567 3.024 1.28861 3.2589 1.17853C3.49379 1.06845 3.74877 1.00769 4.00807 1C4.28153 1.03242 4.54559 1.11982 4.78438 1.25694C5.02317 1.39405 5.23175 1.57805 5.39756 1.79786C6.15989 2.61951 6.94492 3.38278 7.74293 4.21632C8.04895 4.48659 8.24358 4.86174 8.28684 5.26824C8.25548 5.59149 8.12464 5.89529 7.91162 6.13962C7.63372 6.47801 7.32014 6.78072 7.01737 7.10722C6.84151 7.27839 6.70586 7.48647 6.62021 7.71643C6.53457 7.94639 6.50107 8.1925 6.52213 8.43699C6.7146 9.02727 7.04116 9.56567 7.47693 10.0089C8.00894 10.7225 8.54094 11.436 9.12053 12.1009C10.1959 13.3317 11.466 14.3777 12.8803 15.1972C13.0714 15.336 13.2946 15.4243 13.529 15.4538C13.7634 15.4833 14.0015 15.453 14.2211 15.3658C14.6839 15.1009 15.0938 14.7527 15.43 14.3388C15.7348 13.9748 16.1673 13.7412 16.6389 13.6858C17.0606 13.7009 17.4585 13.8782 17.7505 14.1809C18.1138 14.5074 18.4404 14.8826 18.7907 15.2329C19.1411 15.5842 19.4071 15.8253 19.6969 16.141C20.0418 16.4524 20.3673 16.7832 20.6765 17.1313C20.7983 17.2806 20.8888 17.4529 20.9427 17.6379C20.9965 17.8229 21.0127 18.0168 20.9901 18.2081C20.882 18.6838 20.6181 19.1087 20.2408 19.4168C19.7169 19.959 19.081 20.3806 18.3776 20.652C17.6741 20.9235 16.9199 21.0384 16.1675 20.9887C14.6576 20.9224 13.1753 20.5609 11.8044 19.9249Z" stroke="#1802A0" strokeWidth="2" strokeMiterlimit="10" strokeLinecap="round"/>
</svg>
