<svg width="21" height="18" viewBox="0 0 21 18" fill="none" xmlns="http://www.w3.org/2000/svg">
<path fill-rule="evenodd" clip-rule="evenodd" d="M13.125 10.9286H13.9401L14.5176 11.4943L16.4994 13.4357C16.5325 13.4673 16.5746 13.4882 16.6201 13.4959C16.6656 13.5035 16.7124 13.4975 16.7543 13.4786C16.7963 13.4596 16.8314 13.4287 16.855 13.3898C16.8786 13.351 16.8896 13.306 16.8866 13.2609L16.7396 11.3914L16.6583 10.3513L17.5009 9.71485C18.4236 9.02057 19.0312 7.98557 19.0312 6.42857C19.0312 4.86771 18.4209 3.83271 17.4956 3.13714C16.506 2.394 14.9992 1.92857 13.125 1.92857C11.2508 1.92857 9.744 2.394 8.75438 3.13714C7.83038 3.83143 7.21875 4.86771 7.21875 6.42857C7.21875 7.98943 7.82906 9.02443 8.75438 9.72C9.744 10.4631 11.2508 10.9286 13.125 10.9286ZM13.8075 13.5257L15.1069 14.7986C15.4242 15.1094 15.8311 15.3175 16.2728 15.3949C16.7145 15.4724 17.1699 15.4154 17.5775 15.2316C17.9851 15.0478 18.3255 14.7461 18.5528 14.3671C18.7801 13.9881 18.8834 13.55 18.8488 13.1117L18.7031 11.2436C20.1206 10.17 21 8.56671 21 6.42857C21 2.14329 17.4746 0 13.125 0C10.3333 0 7.88156 0.883285 6.48375 2.64857C2.79694 3.06514 0 5.18143 0 9C0 11.1381 0.878063 12.7427 2.29688 13.815L2.15119 15.6831C2.11659 16.1214 2.21989 16.5595 2.44719 16.9386C2.67449 17.3176 3.01487 17.6193 3.42251 17.803C3.83015 17.9868 4.28548 18.0438 4.7272 17.9664C5.16892 17.889 5.57582 17.6808 5.89312 17.37L7.875 15.4286C10.2414 15.4286 12.3638 14.7947 13.8075 13.5257ZM5.43769 4.80343C5.31344 5.304 5.25087 5.84571 5.25 6.42857C5.25 10.1636 7.9275 12.2709 11.4962 12.7517C10.5551 13.2223 9.32531 13.5 7.875 13.5H7.05994L6.48244 14.0657L4.50056 16.0071C4.46748 16.0387 4.42541 16.0597 4.3799 16.0673C4.33439 16.075 4.28758 16.0689 4.24565 16.05C4.20372 16.0311 4.16863 16.0001 4.14502 15.9613C4.12141 15.9224 4.11037 15.8774 4.11338 15.8323L4.26038 13.9629L4.34175 12.9227L3.49912 12.2863C2.57644 11.592 1.96875 10.557 1.96875 9C1.96875 7.43914 2.57906 6.40414 3.50438 5.70857C4.01756 5.32286 4.66856 5.013 5.43769 4.80343Z" fill="#CF0C2A"/>
</svg>
