<svg width="19" height="19" viewBox="0 0 19 19" fill="none" xmlns="http://www.w3.org/2000/svg">
<path d="M0 9.51688C0 7.79574 0.430284 6.20116 1.28242 4.74156C2.13455 3.28197 3.29041 2.12611 4.75 1.27398C6.20959 0.421847 7.79574 0 9.50844 0C10.7909 0 12.0226 0.253108 13.1954 0.750888C14.3681 1.24867 15.3721 1.93206 16.2242 2.77576C17.0764 3.61945 17.7513 4.63188 18.2491 5.81306C18.7469 6.99423 19 8.21759 19 9.51688C19 10.7993 18.7469 12.0311 18.2491 13.2038C17.7513 14.3766 17.0679 15.389 16.2242 16.2327C15.3805 17.0764 14.3681 17.7513 13.1954 18.2491C12.0226 18.7469 10.7993 19 9.50844 19C8.21758 19 6.97735 18.7469 5.80462 18.2491C4.63188 17.7513 3.61945 17.0679 2.76732 16.2242C1.91519 15.3806 1.24867 14.3681 0.742451 13.2038C0.236234 12.0395 0 10.8077 0 9.51688ZM2.09236 9.51688C2.09236 11.5164 2.81794 13.2544 4.27753 14.7309C5.73712 16.1905 7.47513 16.9161 9.50844 16.9161C10.8415 16.9161 12.0817 16.587 13.2123 15.9205C14.3428 15.254 15.254 14.3597 15.9205 13.2207C16.587 12.0817 16.9245 10.8499 16.9245 9.51688C16.9245 8.18384 16.587 6.94361 15.9205 5.80462C15.254 4.66563 14.3512 3.76288 13.2123 3.09636C12.0733 2.42984 10.8415 2.1008 9.50844 2.1008C8.1754 2.1008 6.93517 2.42984 5.80462 3.09636C4.67407 3.76288 3.76288 4.66563 3.08792 5.80462C2.41297 6.94361 2.09236 8.18384 2.09236 9.51688ZM5.39964 7.77886C5.37136 7.69112 5.36201 7.59839 5.37219 7.50677C5.38237 7.41515 5.41185 7.32673 5.4587 7.24734C5.55151 7.0786 5.69494 6.96892 5.88899 6.90986C6.08304 6.8508 6.26021 6.87611 6.42895 6.96892L8.77442 8.29352V3.89787C8.77442 3.70382 8.84192 3.53508 8.97691 3.40009C9.1119 3.2651 9.28064 3.1976 9.47469 3.1976C9.66874 3.1976 9.83748 3.2651 9.97247 3.40009C10.1075 3.53508 10.175 3.70382 10.175 3.89787V9.52531C10.175 9.71936 10.1075 9.8881 9.97247 10.0231C9.83748 10.1581 9.66874 10.2256 9.47469 10.2256C9.29921 10.2267 9.13004 10.1602 9.00222 10.04L5.72869 8.20915C5.57037 8.11046 5.45341 7.9575 5.39964 7.77886Z" fill="#1802A0"/>
</svg>
